# xmcd
#
# Track frame offsets:
#	150
#	3500
#	14432
#	31817
#	42820
#	53942
#	73600
#	84690
#	102877
#	118900
#	136787
#	153245
#	166545
#
# Disc length: 2478 seconds
#
# Revision: 0
# Processed by: cddbd v1.5.2PL0 Copyright (c) Steve Scherf et al.
# Submitted via: dBpowerAMP V4.0
#
DISCID=9a09ac0d
DTITLE=Slack Family - Trains and Rain
DYEAR=2008
DGENRE=Bluegrass
TTITLE0=Intro-Carry me Back to Ole Virginny
TTITLE1=Love the Rain
TTITLE2=Summertime
TTITLE3=Long Lick Run
TTITLE4=Rabbit on the Rail
TTITLE5=Two Things
TTITLE6=Cold Sheets of Rain
TTITLE7=When You Get Back Home
TTITLE8=Long Last Look
TTITLE9=Steer This Train
TTITLE10=Galveston Flood
TTITLE11=When It Rains It Pours
TTITLE12=Rails to Savannah
EXTD=
EXTT0=
EXTT1=
EXTT2=
EXTT3=
EXTT4=
EXTT5=
EXTT6=
EXTT7=
EXTT8=
EXTT9=
EXTT10=
EXTT11=
EXTT12=
PLAYORDER=
